{
  "accessors": [
    {
      "bufferView": 2,
      "componentType": 5126,
      "count": 10455,
      "max": [
        1.5195388793945312,
        4.0736312866210938,
        1.5195388793945312
      ],
      "min": [
        -1.5195388793945312,
        -2.1048808097839355,
        -1.5195388793945312
      ],
      "type": "VEC3"
    },
    {
      "bufferView": 2,
      "byteOffset": 125460,
      "componentType": 5126,
      "count": 10455,
      "max": [
        0.9995003342628479,
        1,
        1
      ],
      "min": [
        -0.99884641170501709,
        -1,
        -1
      ],
      "type": "VEC3"
    },
    {
      "bufferView": 3,
      "componentType": 5126,
      "count": 10455,
      "max": [
        0.99902534484863281,
        0.95529311895370483,
        0.99992638826370239,
        1
      ],
      "min": [
        -0.99936974048614502,
        -0.99998116493225098,
        -0.99999654293060303,
        -1
      ],
      "type": "VEC4"
    },
    {
      "bufferView": 0,
      "componentType": 5125,
      "count": 58956,
      "max": [
        10454
      ],
      "min": [
        0
      ],
      "type": "SCALAR"
    },
    {
      "bufferView": 2,
      "byteOffset": 250920,
      "componentType": 5126,
      "count": 2134,
      "max": [
        1.6332502365112305,
        3.9602999687194824,
        1.6332502365112305
      ],
      "min": [
        -1.6332502365112305,
        -1.7852272987365723,
        -1.6332502365112305
      ],
      "type": "VEC3"
    },
    {
      "bufferView": 2,
      "byteOffset": 276528,
      "componentType": 5126,
      "count": 2134,
      "max": [
        0.99999892711639404,
        0.45248469710350037,
        0.99999892711639404
      ],
      "min": [
        -0.99999892711639404,
        -0.47152286767959595,
        -0.99999892711639404
      ],
      "type": "VEC3"
    },
    {
      "bufferView": 3,
      "byteOffset": 167280,
      "componentType": 5126,
      "count": 2134,
      "max": [
        1,
        0.013629835098981857,
        1,
        1
      ],
      "min": [
        -1,
        -0.013629598543047905,
        -1,
        1
      ],
      "type": "VEC4"
    },
    {
      "bufferView": 1,
      "componentType": 5126,
      "count": 2134,
      "max": [
        1.0002989768981934,
        0.99898123741149902
      ],
      "min": [
        -0.00026720762252807617,
        0
      ],
      "type": "VEC2"
    },
    {
      "bufferView": 0,
      "byteOffset": 235824,
      "componentType": 5125,
      "count": 12096,
      "max": [
        2133
      ],
      "min": [
        0
      ],
      "type": "SCALAR"
    }
  ],
  "asset": {
    "extras": {
      "author": "Rui Barbosa (https://sketchfab.com/mister)",
      "license": "CC-BY-4.0 (http://creativecommons.org/licenses/by/4.0/)",
      "source": "https://sketchfab.com/models/ffdbc5a9ae654f49977a1ca2fc626c24",
      "title": "Soda Can"
    },
    "generator": "Sketchfab-3.18.7",
    "version": "2.0"
  },
  "bufferViews": [
    {
      "buffer": 0,
      "byteLength": 284208,
      "byteOffset": 0,
      "name": "floatBufferViews",
      "target": 34963
    },
    {
      "buffer": 0,
      "byteLength": 17072,
      "byteOffset": 284208,
      "byteStride": 8,
      "name": "floatBufferViews",
      "target": 34962
    },
    {
      "buffer": 0,
      "byteLength": 302136,
      "byteOffset": 301280,
      "byteStride": 12,
      "name": "floatBufferViews",
      "target": 34962
    },
    {
      "buffer": 0,
      "byteLength": 201424,
      "byteOffset": 603416,
      "byteStride": 16,
      "name": "floatBufferViews",
      "target": 34962
    }
  ],
  "buffers": [
    {
      "byteLength": 804840,
      "uri": "scene.bin"
    }
  ],
  "images": [
    {
      "uri": "textures/phong1_baseColor.jpeg"
    }
  ],
  "materials": [
    {
      "doubleSided": true,
      "name": "metal",
      "pbrMetallicRoughness": {
        "baseColorFactor": [
          1,
          1,
          1,
          1
        ],
        "metallicFactor": 1,
        "roughnessFactor": 0.2665777439
      }
    },
    {
      "doubleSided": true,
      "emissiveFactor": [
        0,
        0,
        0
      ],
      "name": "phong1",
      "pbrMetallicRoughness": {
        "baseColorFactor": [
          1,
          1,
          1,
          1
        ],
        "baseColorTexture": {
          "index": 0,
          "texCoord": 0
        },
        "metallicFactor": 0.77000762199999995,
        "roughnessFactor": 0.16901676830000001
      }
    }
  ],
  "meshes": [
    {
      "name": "group8_metal_0",
      "primitives": [
        {
          "attributes": {
            "NORMAL": 1,
            "POSITION": 0,
            "TANGENT": 2
          },
          "indices": 3,
          "material": 0,
          "mode": 4
        }
      ]
    },
    {
      "name": "group8_phong1_0",
      "primitives": [
        {
          "attributes": {
            "NORMAL": 5,
            "POSITION": 4,
            "TANGENT": 6,
            "TEXCOORD_0": 7
          },
          "indices": 8,
          "material": 1,
          "mode": 4
        }
      ]
    }
  ],
  "nodes": [
    {
      "children": [
        1
      ],
      "name": "RootNode (gltf orientation matrix)",
      "rotation": [
        -0.70710678118654746,
        -0,
        -0,
        0.70710678118654757
      ]
    },
    {
      "children": [
        2
      ],
      "name": "RootNode (model correction matrix)"
    },
    {
      "children": [
        3
      ],
      "matrix": [
        1,
        0,
        0,
        0,
        0,
        0,
        1,
        0,
        0,
        -1,
        0,
        0,
        0,
        0,
        0,
        1
      ],
      "name": "9eef9e9bf3524abcac15e44c3bcbe55c.fbx"
    },
    {
      "children": [
        4
      ],
      "name": "RootNode"
    },
    {
      "children": [
        5
      ],
      "name": "group9"
    },
    {
      "children": [
        6
      ],
      "name": "group10"
    },
    {
      "children": [
        7,
        8
      ],
      "name": "group8"
    },
    {
      "mesh": 0,
      "name": "group8_metal_0"
    },
    {
      "mesh": 1,
      "name": "group8_phong1_0"
    }
  ],
  "samplers": [
    {
      "magFilter": 9729,
      "minFilter": 9987,
      "wrapS": 10497,
      "wrapT": 10497
    }
  ],
  "scene": 0,
  "scenes": [
    {
      "name": "OSG_Scene",
      "nodes": [
        0
      ]
    }
  ],
  "textures": [
    {
      "sampler": 0,
      "source": 0
    }
  ]
}

